<?xml version="1.0" encoding="UTF-8"?>
<svg version="1.1" viewBox="0 0 2000 1247" xmlns="http://www.w3.org/2000/svg">
<g transform="translate(-1.2121 71.188)">
<svg width="2e3" height="1247" data-background-color="#ffffff" viewBox="0 0 396 247" xmlns="http://www.w3.org/2000/svg" xmlns:xlink="http://www.w3.org/1999/xlink">
<g transform="translate(.24 -.1)">
<svg width="395.52" height="247.2" viewBox="0 0 395.52 247.2">
<svg/>
<svg width="395.52" height="247.2" viewBox="0 0 395.52 247.2">
<g transform="translate(98.325 47.215)">
<svg width="198.87" height="152.77" viewBox="0 0 198.8702179254724 152.7696">
<svg width="198.87" height="152.77" viewBox="0 0 245.65351679999995 188.70794175019822">
<rect class="rect-o-0" y="101.81" width="245.65" height="3.2809" rx="1%" fill="#4d7e3e" stroke="transparent" stroke-width="0" data-fill-palette-color="primary" data-palette-color="#4d7e3e"/>
<rect class="rect-o-1" y="109.38" width="245.65" height="3.2809" rx="1%" fill="#4d7e3e" stroke="transparent" stroke-width="0" data-fill-palette-color="primary" data-palette-color="#4d7e3e"/>
<g transform="translate(.61108 121.25)">
<svg width="244.43" height="67.454" viewBox="0 0 244.43135999999998 67.45353576649237">
<svg width="244.43" height="67.454" viewBox="0 0 244.43135999999998 67.45353576649237">
<svg width="244.43" height="36.381" viewBox="0 0 244.43135999999998 36.38121402061856">
<g>
<svg width="244.43" height="36.381" data-palette-color="#4d7e3e" viewBox="2 -34.29999923706055 232.7899932861328 34.64999771118164">
<path class="undefined-text-0" d="m20.75-34.3q5.9 0 9.35 2.65t3.45 7.5-3.45 7.45-9.35 2.6h-9.65v12.55h7.75v1.55h-16.85v-1.55h7.45v-31.2h-7.45v-1.55h18.75zm0 18.65q5 0 8.08-2.13 3.07-2.12 3.07-6.37t-3.07-6.43q-3.08-2.17-8.08-2.17h-9.65v17.1h9.65zm47 6.7h1.55v8.95h-30.8v-1.55h7.45v-31.2h-7.45v-1.55h16.55v1.55h-7.45v31.2h20.15v-7.4zm41.7 7.4h6.8v1.55h-15v-1.55h6.34l-4.84-11.55h-17.45l-4.85 11.55h6.6v1.55h-15.15v-1.55h6.9l13.54-31.25h-7.09v-1.5h17.59v1.5h-7.14l13.75 31.25zm-23.45-13.1h16.05l-7.65-18.15h-0.75l-7.65 18.15zm75.74-19.65v1.55h-7.45v33.1h-0.35l-26.95-31.95v30.05h6.85v1.55h-15.95v-1.55h7.45v-31.2h-7.45v-1.55h9.1l25.65 30.55v-29h-7.45v-1.55h16.55zm3.35 0h32.95v8.95h-1.65v-7.45h-14v31.25h7.8v1.55h-17.2v-1.55h7.75v-31.25h-14v7.45h-1.65v-8.95zm60.25 16.7q4.45 0.6 6.95 2.72 2.5 2.13 2.5 5.93 0 4.4-3.28 6.68-3.27 2.27-9.17 2.27h-19.65v-1.55h7.45v-31.2h-7.45v-1.55h19.25q5 0 7.82 2.3 2.83 2.3 2.83 6.2 0 3.15-1.83 5.3-1.82 2.15-5.42 2.9zm-3.6-15.15h-9.95v14.4h9.75q4.3 0 6.85-1.93 2.55-1.92 2.55-5.52 0-3.5-2.5-5.23-2.5-1.72-6.7-1.72zm0.2 31.2q5.3 0 8.25-1.8t2.95-5.65q0-4-3.3-5.85t-8.65-1.95l-9.4-0.05v15.3h10.15z" fill="#4d7e3e" data-fill-palette-color="primary"/>
</svg>
</g>
</svg>
<g transform="translate(0 44.97)">
<svg width="244.43" height="22.484" viewBox="0 0 244.43135999999998 22.48359026474227">
<g>
<svg width="244.43" height="22.484" data-palette-color="#4d7e3e" viewBox="2.299999952316284 -36.5 518.030029296875 47.650001525878906">
<path class="undefined-text-1" d="m14.8 0.5q-2.7 0-5-1.15t-3.97-3.08q-1.68-1.92-2.6-4.3-0.93-2.37-0.93-4.87 0-2.6 0.88-5.03 0.87-2.42 2.47-4.32t3.82-3q2.23-1.1 4.88-1.1 3.55 0 6.15 1.9t4.45 4.55v-6.05h1v27.05q0 3.4-1.62 5.65-1.63 2.25-4.25 3.33-2.63 1.07-5.58 1.07-4.6 0-7.2-1.72-2.6-1.73-4.05-4.48l0.95-0.3q1.6 2.9 4.38 4.2 2.77 1.3 5.92 1.3 2.85 0 5.23-1.02 2.37-1.03 3.8-3.05 1.42-2.03 1.42-4.98v-6.5q-1.65 2.6-4.42 4.25-2.78 1.65-5.73 1.65zm0-1q1.85 0 3.6-0.7t3.2-1.88q1.45-1.17 2.35-2.57t1-2.8v-9.35q-0.8-2.2-2.47-3.9-1.68-1.7-3.78-2.68-2.1-0.97-4.35-0.97-2.6 0-4.67 1.1-2.08 1.1-3.48 2.92-1.4 1.83-2.15 4.03t-0.75 4.4q0 2.45 0.87 4.68 0.88 2.22 2.48 3.97t3.68 2.75q2.07 1 4.47 1zm32.85-25.45v1q-3.65 0.15-6.35 2.42-2.7 2.28-3.75 6.13v16.4h-1v-25.95h1v6.7q1.35-2.75 3.62-4.53 2.28-1.77 4.83-2.07 0.5-0.05 0.92-0.08 0.43-0.02 0.73-0.02zm16.39 26.45q-2.55 0-4.8-1.05t-3.95-2.93q-1.7-1.87-2.65-4.3-0.95-2.42-0.95-5.12 0-2.75 0.98-5.17 0.97-2.43 2.67-4.31 1.7-1.87 3.95-2.92t4.75-1.05 4.75 1.05 3.95 2.92q1.7 1.88 2.68 4.31 0.97 2.42 0.97 5.17 0 2.7-0.95 5.12-0.95 2.43-2.67 4.3-1.73 1.88-3.95 2.93-2.23 1.05-4.78 1.05zm-11.35-13.3q0 3.35 1.53 6.15 1.52 2.8 4.1 4.47 2.57 1.68 5.67 1.68t5.7-1.7 4.15-4.55 1.55-6.2-1.55-6.18q-1.55-2.82-4.12-4.52-2.58-1.7-5.68-1.7-3.05 0-5.65 1.72-2.6 1.73-4.15 4.58t-1.55 6.25zm53.9 11.35 10.7-24.5h1.1l-11.35 25.95h-0.9l-6.35-14.55-6.35 14.55h-0.9l-11.35-25.95h1.1l10.7 24.5 6.25-14.35-4.35-10.1h1.05l3.85 8.8 3.85-8.8h1.05l-4.35 10.1 6.25 14.35zm40.89 1.95q-2.95 0-5.45-1.03-2.5-1.02-4.45-3.17l0.75-0.65q2 1.95 4.2 2.9t4.95 0.95q3.85 0 6.25-1.68 2.4-1.67 2.4-4.62 0-1.9-1.05-2.98-1.05-1.07-3.07-1.75-2.03-0.67-4.93-1.32-2.65-0.65-4.42-1.28-1.78-0.62-2.65-1.72-0.88-1.1-0.88-3.15 0-2.6 1.28-4.2 1.27-1.6 3.35-2.38 2.07-0.77 4.52-0.77 3.15 0 5.38 1.07 2.22 1.08 3.07 2.68l-0.9 0.4q-0.95-1.55-3.1-2.35t-4.65-0.8q-2.15 0-3.95 0.65t-2.9 2-1.1 3.55q0 1.7 0.75 2.65t2.3 1.5 3.95 1.15q3.1 0.7 5.35 1.45t3.45 1.97q1.2 1.23 1.2 3.48 0 3.4-2.65 5.42-2.65 2.03-7 2.03zm38.35-14.95v14.45h-1v-14.45q0-5.4-1.83-8.15-1.82-2.75-5.37-2.75-2.4 0-4.68 1.17-2.27 1.18-3.92 3.2-1.65 2.03-2.35 4.58v16.4h-1v-36.5h1v17.25q1.6-3.25 4.57-5.18 2.98-1.92 6.33-1.92 2.05 0 3.57 0.75 1.53 0.75 2.58 2.27 1.05 1.53 1.57 3.73 0.53 2.2 0.53 5.15zm20.74 14.95q-2.55 0-4.8-1.05t-3.95-2.93q-1.7-1.87-2.65-4.3-0.95-2.42-0.95-5.12 0-2.75 0.98-5.17 0.97-2.43 2.67-4.31 1.7-1.87 3.95-2.92t4.75-1.05 4.75 1.05 3.95 2.92q1.7 1.88 2.68 4.31 0.97 2.42 0.97 5.17 0 2.7-0.95 5.12-0.95 2.43-2.67 4.3-1.73 1.88-3.95 2.93-2.23 1.05-4.78 1.05zm-11.35-13.3q0 3.35 1.53 6.15 1.52 2.8 4.1 4.47 2.57 1.68 5.67 1.68t5.7-1.7 4.15-4.55 1.55-6.2-1.55-6.18q-1.55-2.82-4.12-4.52-2.58-1.7-5.68-1.7-3.05 0-5.65 1.72-2.6 1.73-4.15 4.58t-1.55 6.25zm44 13.3q-3.45 0-6.17-1.93-2.73-1.92-4.43-4.52v16.6h-1v-36.6h1v5.5q1.65-2.6 4.43-4.25 2.77-1.65 5.72-1.65 2.75 0 5.03 1.15 2.27 1.15 3.95 3.07 1.67 1.93 2.6 4.33 0.92 2.4 0.92 4.9 0 3.55-1.5 6.6t-4.2 4.92q-2.7 1.88-6.35 1.88zm0-1q2.55 0 4.58-1.05 2.02-1.05 3.47-2.85t2.23-4q0.77-2.2 0.77-4.5 0-2.45-0.87-4.67-0.88-2.23-2.48-3.98t-3.67-2.78q-2.08-1.02-4.48-1.02-1.5 0-3.22 0.65-1.73 0.65-3.28 1.77-1.55 1.13-2.55 2.55-1 1.43-1.1 2.98v9.35q0.95 2.1 2.55 3.8t3.68 2.72q2.07 1.03 4.37 1.03zm43.54 1q-2.95 0-5.45-1.03-2.5-1.02-4.45-3.17l0.75-0.65q2 1.95 4.2 2.9t4.95 0.95q3.85 0 6.25-1.68 2.4-1.67 2.4-4.62 0-1.9-1.05-2.98-1.05-1.07-3.07-1.75-2.03-0.67-4.93-1.32-2.65-0.65-4.42-1.28-1.78-0.62-2.65-1.72-0.88-1.1-0.88-3.15 0-2.6 1.28-4.2 1.27-1.6 3.35-2.38 2.07-0.77 4.52-0.77 3.15 0 5.38 1.07 2.22 1.08 3.07 2.68l-0.9 0.4q-0.95-1.55-3.1-2.35t-4.65-0.8q-2.15 0-3.95 0.65t-2.9 2-1.1 3.55q0 1.7 0.75 2.65t2.3 1.5 3.95 1.15q3.1 0.7 5.35 1.45t3.45 1.97q1.2 1.23 1.2 3.48 0 3.4-2.65 5.42-2.65 2.03-7 2.03zm19.2-0.5h-1v-25.95h1v25.95zm0-32.65h-1v-3.85h1v3.85zm30.75 18.2v14.45h-1v-14.45q0-5.65-1.58-8.28-1.57-2.62-5.07-2.62-2.5 0-4.88 1.17-2.37 1.18-4.12 3.2-1.75 2.03-2.5 4.58v16.4h-1v-25.95h1v6.7q1.1-2.1 2.9-3.7t4.02-2.5q2.23-0.9 4.53-0.9 2 0 3.45 0.72 1.45 0.73 2.4 2.18t1.4 3.7 0.45 5.3zm20.94 14.95q-2.55 0-4.82-1.08-2.28-1.07-4.03-2.95-1.75-1.87-2.72-4.32-0.98-2.45-0.98-5.25 0-3.75 1.65-6.75t4.5-4.75 6.35-1.75q3.25 0 5.85 1.52 2.6 1.53 3.9 4.28l-1 0.35q-1.25-2.4-3.65-3.78-2.4-1.37-5.25-1.37-3.15 0-5.72 1.62-2.58 1.63-4.1 4.4-1.53 2.78-1.53 6.23 0 3.4 1.55 6.27 1.55 2.88 4.15 4.6 2.6 1.73 5.7 1.73 2.05 0 4-0.78 1.95-0.77 3.38-2.02 1.42-1.25 1.82-2.65l1 0.3q-0.55 1.75-2.1 3.15t-3.62 2.2q-2.08 0.8-4.33 0.8zm28.8 0q-2.55 0-4.83-1.08-2.27-1.07-4-2.95-1.72-1.87-2.7-4.35-0.97-2.47-0.97-5.27 0-3.65 1.65-6.65t4.42-4.78q2.78-1.77 6.18-1.77 3.45 0 6.27 1.8 2.83 1.8 4.53 4.82 1.7 3.03 1.7 6.78 0 0.15 0 0.27 0 0.13 0 0.28h-23.75q0.25 3.35 1.85 6.05t4.15 4.27q2.55 1.58 5.55 1.58t5.6-1.52q2.6-1.53 3.7-3.93l0.95 0.25q-0.7 1.75-2.28 3.17-1.57 1.43-3.67 2.23t-4.35 0.8zm-11.5-13.9h22.7q-0.2-3.5-1.75-6.18-1.55-2.67-4.05-4.22t-5.6-1.55q-3.05 0-5.55 1.55t-4.03 4.25q-1.52 2.7-1.72 6.15zm64.79 13.4h-19.5q0-0.9 0.23-2.58 0.22-1.67 1.02-3.65 0.8-1.97 2.55-3.82t4.75-3.1q1.4-0.6 3.03-1.25 1.62-0.65 3.07-1.6t2.38-2.32q0.92-1.38 0.92-3.33 0-1.55-0.87-3-0.88-1.45-2.68-2.43-1.8-0.97-4.55-0.97-1.85 0-3.35 0.57-1.5 0.58-2.6 1.35-1.1 0.78-1.75 1.48t-0.85 0.95l-0.8-0.6t0.63-0.73q0.62-0.72 1.85-1.67 1.22-0.95 2.95-1.65 1.72-0.7 3.92-0.7 3 0 5.03 1.1 2.02 1.1 3.05 2.8 1.02 1.7 1.02 3.5 0 2.25-1.02 3.8-1.03 1.55-2.58 2.57-1.55 1.03-3.27 1.75-1.73 0.73-3.18 1.33-2.6 1.1-4.17 2.73-1.58 1.62-2.4 3.32-0.83 1.7-1.1 3.07-0.28 1.38-0.28 2.08h18.55v1zm32.1-14.65q0 4.4-1.58 7.82-1.57 3.43-4.35 5.38-2.77 1.95-6.32 1.95t-6.33-1.95q-2.77-1.95-4.35-5.38-1.57-3.42-1.57-7.82t1.57-7.83q1.58-3.42 4.35-5.4 2.78-1.97 6.33-1.97t6.32 1.97q2.78 1.98 4.35 5.4 1.58 3.43 1.58 7.83zm-1 0q0-4.2-1.43-7.4-1.42-3.2-3.95-5-2.52-1.8-5.87-1.8-3.3 0-5.85 1.8t-3.98 5q-1.42 3.2-1.42 7.4t1.42 7.37q1.43 3.18 3.98 4.98t5.85 1.8q3.35 0 5.87-1.8 2.53-1.8 3.95-4.98 1.43-3.17 1.43-7.37zm17.64 13.65h6.35v1h-14.45v-1h7.1v-25.9q-0.4 0.6-1.35 1.32-0.95 0.73-2.17 1.4-1.23 0.68-2.48 1.13t-2.25 0.45v-1.2q1.35 0 2.78-0.7 1.42-0.7 2.65-1.6 1.22-0.9 2-1.65 0.77-0.75 0.82-0.8h1v27.55zm35.85-8.4q0 2.95-1.68 5.15-1.67 2.2-4.42 3.4t-5.95 1.2q-3.55 0-6.2-1.4t-4.08-3.65q-1.42-2.25-1.42-4.8 0-2.5 1.2-4.45t3.1-3.25 3.9-1.85q-1.85-0.65-3.43-1.78-1.57-1.12-2.52-2.67t-0.95-3.55q0-2.05 0.9-3.63 0.9-1.57 2.45-2.65 1.55-1.07 3.42-1.62 1.88-0.55 3.83-0.55t3.82 0.55q1.88 0.55 3.4 1.62 1.53 1.08 2.43 2.65 0.9 1.58 0.9 3.63 0 2-0.98 3.55-0.97 1.55-2.55 2.67-1.57 1.13-3.42 1.78 2.35 0.65 4.2 2.02 1.85 1.38 2.95 3.3 1.1 1.93 1.1 4.33zm-1-0.15q0-2.15-1-3.83-1-1.67-2.6-2.82t-3.53-1.75q-1.92-0.6-3.82-0.6-2.6 0-5.08 1.12-2.47 1.13-4.1 3.18-1.62 2.05-1.62 4.8 0 2.15 1 3.8t2.6 2.8 3.55 1.75 3.8 0.6q2.6 0 5.07-1.1 2.48-1.1 4.1-3.15 1.63-2.05 1.63-4.8zm-20.45-17.4q0 2.35 1.47 4.02 1.48 1.68 3.7 2.53 2.23 0.85 4.38 0.85 2.2 0 4.42-0.88 2.23-0.87 3.7-2.57 1.48-1.7 1.48-4.05 0-2.4-1.4-4.05t-3.6-2.53q-2.2-0.87-4.65-0.87-2.4 0-4.58 0.9-2.17 0.9-3.55 2.57-1.37 1.68-1.37 4.08z" fill="#4d7e3e" data-fill-palette-color="secondary"/>
</svg>
</g>
</svg>
</g>
</svg>
</svg>
</g>
<g transform="translate(89.763)">
<svg width="66.127" height="93.221" viewBox="0 0 66.1272950172482 93.22078642929247">
<svg class="icon-icon-0" width="66.127" height="93.221" enable-background="new 0 0 100 100" fill="#4d7e3e" data-fill-palette-color="accent" version="1.1" viewBox="19.470001220703125 4.706001281738281 60.59300231933594 85.41899871826172" xml:space="preserve" xmlns="http://www.w3.org/2000/svg" xmlns:xlink="http://www.w3.org/1999/xlink"><polygon points="68.45 68.714 64.25 90.125 40.125 90.125 34.429 68.714" data-fill-palette-color="accent"/><path d="m45.532 48.833c-0.75-0.333-13.938-3.875-16.5-7s-9.562-4.375-9.562-4.375c12-0.125 17.25 1.562 17.25 1.562 7.938 0.938 10.031 9.938 10.031 9.938l3.75 3.125-0.042-2.5s-1.042-3.542-1-3.833-0.125-5.083-0.125-5.083-1.708-4.333-3.958-6.917-4.083-6.168 0.958-16.71c0 0 1.75-2.5 2.083-5.292s4.166-7.042 4.166-7.042 11.833 13.96-1.25 32.294c0 0-1.177 1.938-1.177 3.719s0.492 7.529 1.094 8.281l1.594-2.125s2.031-9 9.969-9.938c0 0 5.25-1.688 17.25-1.562 0 0-7 1.25-9.562 4.375s-15.75 6.667-16.5 7-2.438 3.917-2.438 3.917 0.375 8.751 1 10.167l18.425-0.022-0.737 5.771-1.62 0.035-34.255 7e-3h-1.25l-0.583-5.791h19l-0.875-6.667s-0.12-0.965-1.625-2.125l-2.5-2.125-1.011-1.084z" data-fill-palette-color="accent"/></svg>
</svg>
</g>
</svg>
</svg>
</g>
<path d="m143.52 40.262a99.435 99.435 0 0 1 108.48 0h-2.657a96.779 96.779 0 0 0-103.17 0h-2.657m0 166.68a99.435 99.435 0 0 0 108.48 0h-2.657a96.779 96.779 0 0 1-103.17 0h-2.657" fill="#4d7e3e" stroke="transparent" data-fill-palette-color="tertiary"/>
</svg>
</svg>
<rect width="395.52" height="247.2" fill="none" visibility="hidden"/>
</g>
</svg>
</g>
</svg>
